<svg width="421" height="100" viewBox="0 0 421 100" fill="none" xmlns="http://www.w3.org/2000/svg">
<path d="M21.888 1.71359H0V97.2H21.888C42.8184 97.2 75.6504 87.3504 75.6504 49.4568C75.6504 11.5632 42.8184 1.71359 21.888 1.71359ZM4.24073 15.12H23.6663C35.4311 15.12 60.3288 20.8656 60.3288 49.4568C60.3288 78.048 35.4311 83.7936 23.6663 83.7936H15.3215V23.1912L4.24073 15.12Z" fill="#3D65FF"/>
<path d="M202.738 49.4568C202.738 76.5432 225.584 98.568 253.902 98.568C263.478 98.568 272.37 95.9688 279.894 91.5912V74.0808C273.327 80.9208 264.162 85.1616 253.902 85.1616C233.929 85.1616 217.786 69.156 217.786 49.4568C217.786 29.7576 233.929 13.752 253.902 13.752C264.162 13.752 273.327 17.9928 279.894 24.8328V7.32238C272.37 2.94478 263.478 0.345581 253.902 0.345581C225.584 0.345581 202.738 22.3704 202.738 49.4568Z" fill="#3D65FF"/>
<path d="M348.415 1.71362H288.086V15.12H310.521V97.2H325.98V22.3704L315.993 15.12H348.415V1.71362Z" fill="#3D65FF"/>
<path d="M135.644 99.5045C137.516 100.165 140.599 100.165 142.471 99.5045C155.268 95.1357 180.728 79.6606 190.33 53.8446H171.173L165.668 40.9981L148.692 67.6086L142.728 48.7978L134.928 61.6442L128.046 46.9625L110.612 64.8558L100.059 50.1742L89.9178 58.8914C100.739 81.6833 123.703 95.4283 135.644 99.5045Z" fill="#3D65FF"/>
<path d="M114.611 2C97.709 2 84 15.764 84 32.7764C84 40.7381 85.5226 48.0254 88.0795 54.6253L88.4991 55.6798L100.976 45.1273L110.61 59.3502L128.504 40.9981L134.927 53.3858L144.103 40.0805L149.609 59.3502L166.125 32.7764L173.007 49.7154H191.7L192.567 46.4033C193.562 42.1067 194.112 37.5635 194.112 32.7764C194.112 15.764 180.403 2 163.501 2C153.536 2 144.617 6.84495 139.056 14.3326C133.496 6.84495 124.631 2 114.611 2Z" fill="#3D65FF"/>
<path d="M420.64 97.2L390.817 57.2544C402.582 54.9288 413.252 48.2256 413.252 30.168C413.252 4.03923 391.091 1.71362 375.222 1.71362H356.617V97.2H371.939V58.6224H373.717L402.582 97.2H420.64ZM362.089 15.12H379.189C387.124 15.12 397.931 16.3512 397.931 30.168C397.931 43.848 387.124 45.216 379.189 45.216H371.939V22.3704L362.089 15.12Z" fill="#3D65FF"/>
<path d="M21.888 1.71359H0V97.2H21.888C42.8184 97.2 75.6504 87.3504 75.6504 49.4568C75.6504 11.5632 42.8184 1.71359 21.888 1.71359ZM4.24073 15.12H23.6663C35.4311 15.12 60.3288 20.8656 60.3288 49.4568C60.3288 78.048 35.4311 83.7936 23.6663 83.7936H15.3215V23.1912L4.24073 15.12Z" stroke="#3D65FF"/>
<path d="M202.738 49.4568C202.738 76.5432 225.584 98.568 253.902 98.568C263.478 98.568 272.37 95.9688 279.894 91.5912V74.0808C273.327 80.9208 264.162 85.1616 253.902 85.1616C233.929 85.1616 217.786 69.156 217.786 49.4568C217.786 29.7576 233.929 13.752 253.902 13.752C264.162 13.752 273.327 17.9928 279.894 24.8328V7.32238C272.37 2.94478 263.478 0.345581 253.902 0.345581C225.584 0.345581 202.738 22.3704 202.738 49.4568Z" stroke="#3D65FF"/>
<path d="M348.415 1.71362H288.086V15.12H310.521V97.2H325.98V22.3704L315.993 15.12H348.415V1.71362Z" stroke="#3D65FF"/>
<path d="M135.644 99.5045C137.516 100.165 140.599 100.165 142.471 99.5045C155.268 95.1357 180.728 79.6606 190.33 53.8446H171.173L165.668 40.9981L148.692 67.6086L142.728 48.7978L134.928 61.6442L128.046 46.9625L110.612 64.8558L100.059 50.1742L89.9178 58.8914C100.739 81.6833 123.703 95.4283 135.644 99.5045Z" stroke="#3D65FF"/>
<path d="M114.611 2C97.709 2 84 15.764 84 32.7764C84 40.7381 85.5226 48.0254 88.0795 54.6253L88.4991 55.6798L100.976 45.1273L110.61 59.3502L128.504 40.9981L134.927 53.3858L144.103 40.0805L149.609 59.3502L166.125 32.7764L173.007 49.7154H191.7L192.567 46.4033C193.562 42.1067 194.112 37.5635 194.112 32.7764C194.112 15.764 180.403 2 163.501 2C153.536 2 144.617 6.84495 139.056 14.3326C133.496 6.84495 124.631 2 114.611 2Z" stroke="#3D65FF"/>
<path d="M420.64 97.2L390.817 57.2544C402.582 54.9288 413.252 48.2256 413.252 30.168C413.252 4.03923 391.091 1.71362 375.222 1.71362H356.617V97.2H371.939V58.6224H373.717L402.582 97.2H420.64ZM362.089 15.12H379.189C387.124 15.12 397.931 16.3512 397.931 30.168C397.931 43.848 387.124 45.216 379.189 45.216H371.939V22.3704L362.089 15.12Z" stroke="#3D65FF"/>
</svg>
